<svg preserveAspectRatio="none" width="100%" height="100%" overflow="visible" style="display: block;" viewBox="0 0 53.804 51.6323" fill="none" xmlns="http://www.w3.org/2000/svg">
<path id="Vector" d="M24.3666 3.842C25.1666 1.386 28.6413 1.386 29.4386 3.842L33.4893 16.306C33.8469 17.4027 34.8691 18.1452 36.0226 18.146H49.1293C51.7133 18.146 52.7853 21.4527 50.6973 22.9727L40.0946 30.674C39.1603 31.3532 38.7695 32.5568 39.1266 33.6553L43.1746 46.1193C43.9746 48.578 41.1613 50.6207 39.0733 49.1007L28.4706 41.3993C27.5358 40.7197 26.2695 40.7197 25.3346 41.3993L14.732 49.1007C12.644 50.6207 9.83064 48.5753 10.6306 46.1193L14.6786 33.6553C15.0358 32.5568 14.645 31.3532 13.7106 30.674L3.10798 22.9727C1.01731 21.4527 2.09464 18.146 4.67598 18.146H17.78C18.9345 18.1463 19.9581 17.4036 20.316 16.306L24.3666 3.842V3.842" stroke="var(--stroke-0, #81DBE3)" stroke-width="4" stroke-linecap="round" stroke-linejoin="round"/>
</svg>
