<svg width="64" height="64" viewBox="0 0 64 64" fill="none" xmlns="http://www.w3.org/2000/svg">
<path fill-rule="evenodd" clip-rule="evenodd" d="M55.5146 6.0594C56.1121 5.91005 56.7451 6.04473 57.2305 6.42366C57.7159 6.80265 58 7.38399 58 7.99983V42.6668L57.9961 42.8856C57.9106 45.1334 56.5156 46.9364 54.7666 48.1024C52.9473 49.3151 50.5489 49.9998 48 49.9998C45.4511 49.9998 43.0527 49.3151 41.2334 48.1024C39.428 46.8988 38.0001 45.0165 38 42.6668C38 40.317 39.4279 38.4338 41.2334 37.2303C43.0527 36.0176 45.4511 35.3328 48 35.3328C50.2054 35.3328 52.2976 35.8466 54 36.7703V21.2283L26 28.2283V50.6668L25.9961 50.8856C25.9106 53.1334 24.5156 54.9364 22.7666 56.1024C20.9473 57.3151 18.5489 57.9998 16 57.9998C13.4511 57.9998 11.0527 57.3151 9.2334 56.1024C7.42803 54.8988 6.00013 53.0165 6 50.6668C6.00003 48.317 7.42787 46.4339 9.2334 45.2303C11.0527 44.0176 13.4511 43.3328 16 43.3328C18.2054 43.3328 20.2976 43.8466 22 44.7703V15.9998C22 15.0822 22.6245 14.2821 23.5146 14.0594L55.5146 6.0594ZM16 47.3328C14.1302 47.3328 12.5281 47.8422 11.4521 48.5594C10.3627 49.2857 10 50.0701 10 50.6668C10.0001 51.2636 10.3626 52.0479 11.4521 52.7742C12.5281 53.4915 14.1302 53.9998 16 53.9998C17.8698 53.9998 19.4719 53.4915 20.5479 52.7742C21.6374 52.0479 21.9999 51.2636 22 50.6668C22 50.0701 21.6373 49.2857 20.5479 48.5594C19.4719 47.8422 17.8698 47.3328 16 47.3328ZM48 39.3328C46.1302 39.3328 44.5281 39.8422 43.4521 40.5594C42.3627 41.2857 42 42.0701 42 42.6668C42.0001 43.2636 42.3626 44.0479 43.4521 44.7742C44.5281 45.4915 46.1302 45.9998 48 45.9998C49.8698 45.9998 51.4719 45.4915 52.5479 44.7742C53.6374 44.0479 53.9999 43.2636 54 42.6668C54 42.0701 53.6373 41.2857 52.5479 40.5594C51.4719 39.8422 49.8698 39.3328 48 39.3328ZM26 17.5614V24.1043L54 17.1043V10.5614L26 17.5614Z" fill="#81DBE3"/>
</svg>
