<svg preserveAspectRatio="xMidYMid meet" width="100%" height="100%" overflow="visible" style="display: block;" viewBox="0 0 52.0005 52" fill="none" xmlns="http://www.w3.org/2000/svg">
<path id="Vector" d="M18 44.6667V10L50 2.00002V36.6667M18 44.6667C18 47.6134 14.4187 50 10 50C5.58133 50 2 47.6134 2 44.6667C2 41.72 5.58133 39.3334 10 39.3334C14.4187 39.3334 18 41.72 18 44.6667ZM50 36.6667C50 39.6134 46.4187 42 42 42M50 36.6667C50 33.72 nan nan 42 31.3334M50 36.6667C50 33.72 46.4187 31.3334 42 31.3334M42 42Cnan nan 34 39.6134 34 36.6667M42 42C37.5813 42 34 39.6134 34 36.6667M34 36.6667Cnan nan 37.5813 31.3334 42 31.3334M34 36.6667C34 33.72 37.5813 31.3334 42 31.3334M18 20.6667L50 12.6667" stroke="var(--stroke-0, #81DBE3)" stroke-width="4" stroke-linecap="round" stroke-linejoin="round"/>
</svg>
